<?xml version="1.0" standalone="no"?><!DOCTYPE svg PUBLIC "-//W3C//DTD SVG 1.1//EN" "http://www.w3.org/Graphics/SVG/1.1/DTD/svg11.dtd"><svg t="1591324284217" class="icon" viewBox="0 0 1024 1024" version="1.1" xmlns="http://www.w3.org/2000/svg" p-id="602" xmlns:xlink="http://www.w3.org/1999/xlink" width="200" height="200"><defs><style type="text/css"></style></defs><path d="M510 112c219.9 0 398.8 178.9 398.8 398.90000001 0 219.9-178.9 398.8-398.8 398.79999999s-398.8-178.9-398.8-398.8c0-220 178.9-398.9 398.8-398.9z m0 701.5c166.9 0 302.7-135.8 302.7-302.7S676.9 208.1 510 208.1s-302.7 135.8-302.7 302.7S343.1 813.5 510 813.5z" fill="#BDD2EF" p-id="603"></path><path d="M621.5 346.7c0 15-5.7 30.1-17.2 41.5l-122.6 122.6 122.6 122.6c22.9 22.9 22.9 60.2 0 83.1-22.9 22.9-60.2 22.9-83.1 0l-164.10000001-164.1c-22.9-22.9-22.9-60.2 1e-8-83.1L521.2 305.2c22.9-22.9 60.2-22.9 83.1 0 11.5 11.4 17.2 26.50000001 17.2 41.5z" fill="#2867CE" p-id="604"></path></svg>