<?xml version="1.0" standalone="no"?><!DOCTYPE svg PUBLIC "-//W3C//DTD SVG 1.1//EN" "http://www.w3.org/Graphics/SVG/1.1/DTD/svg11.dtd"><svg t="1591149811579" class="icon" viewBox="0 0 1024 1024" version="1.1" xmlns="http://www.w3.org/2000/svg" p-id="7258" xmlns:xlink="http://www.w3.org/1999/xlink" width="200" height="200"><defs><style type="text/css"></style></defs><path d="M880.5 992c-4.1 0-8.1-1-11.8-3.1L512.5 787.6 156.3 988.9c-7.4 4.2-16.5 4.1-23.9-0.2a23.93 23.93 0 0 1-11.9-20.7V136c0-57.3 46.7-104 104-104h576c57.3 0 104 46.7 104 104v832c0 8.5-4.5 16.4-11.9 20.7-3.7 2.2-7.9 3.3-12.1 3.3z m-368-256c4.1 0 8.1 1 11.8 3.1l332.2 187.8V136c0-30.9-25.1-56-56-56h-576c-30.9 0-56 25.1-56 56v790.9l332.2-187.8c3.7-2.1 7.7-3.1 11.8-3.1z" fill="#1037AC" p-id="7259"></path></svg>